<svg height="512pt" viewBox="0 -81 512 512" width="512pt" xmlns="http://www.w3.org/2000/svg"><path d="m401.316406 350c-61.03125 0-110.683594-49.652344-110.683594-110.683594s49.652344-110.683594 110.683594-110.683594 110.683594 49.652344 110.683594 110.683594-49.652344 110.683594-110.683594 110.683594zm0-191.367188c-44.488281 0-80.683594 36.195313-80.683594 80.683594 0 44.488282 36.195313 80.683594 80.683594 80.683594 44.488282 0 80.683594-36.195312 80.683594-80.683594 0-44.488281-36.195312-80.683594-80.683594-80.683594zm0 0" fill="#292929"/><path d="m367 76.566406v-46.566406l-30-20v60.507812l-81 48.597657-10.664062 23.894531 10.664062 11.09375 87.683594-52.609375 40.839844 122.515625h-128.523438l-10.664062 15.316406 10.664062 14.683594h170.144531zm0 0" fill="#bdcad4"/><path d="m288 0h79v30h-79zm0 0" fill="#2488ff"/><path d="m134.335938 89.667969h30v64h-30zm0 0" fill="#d3e1e6"/><path d="m128.363281 30.667969h-2.363281c-24.8125 0-45 20.1875-45 45v29h126v-48.582031zm0 0" fill="#292929"/><path d="m157.667969 139.117188v34.671874c20.382812 14.65625 33.699219 38.558594 33.699219 65.527344 0 44.492188-36.195313 80.683594-80.683594 80.683594-39.53125 0-72.488282-28.585938-79.347656-66.164062l-14.046876-4-16.335937 4c7.132813 54.191406 53.617187 96.164062 109.730469 96.164062 61.03125 0 110.683594-49.652344 110.683594-110.683594 0-44.242187-26.097657-82.496094-63.699219-100.199218zm0 0" fill="#4f4f4f"/><path d="m138.980469 224 24.398437-65.066406-3.136718-4.101563h-52.574219l-11.980469 99.167969h160.3125v-30zm0 0" fill="#d3e1e6"/><path d="m199.71875 187.863281 56.28125-33.769531v-34.988281l-71.71875 43.03125zm0 0" fill="#d3e1e6"/><path d="m126.929688 145.1875s-2.664063 14.316406 3.726562 15.949219c25.738281 6.578125 46.566406 25.574219 55.699219 50.195312h31.425781c-9.878906-37.769531-39.253906-67.738281-76.683594-78.449219-9.667968-2.765624-14.167968 12.304688-14.167968 12.304688zm0 0" fill="#4f4f4f"/><path d="m95.6875 254s25.230469-66.136719 45.40625-121.117188c-9.664062-2.769531-19.867188-4.25-30.410156-4.25-61.03125 0-110.683594 49.652344-110.683594 110.683594 0 4.921875.328125 9.765625.953125 14.519532zm0 0" fill="#2488ff"/></svg>