<svg height="512pt" viewBox="0 0 512 512" width="512pt" xmlns="http://www.w3.org/2000/svg"><path d="m425.359375 0h-338.71875c-47.851563 0-86.640625 38.789062-86.640625 86.640625v338.71875c0 47.851563 38.789062 86.640625 86.640625 86.640625h338.71875c47.851563 0 86.640625-38.789062 86.640625-86.640625v-338.71875c0-47.851563-38.789062-86.640625-86.640625-86.640625zm0 0" fill="#1a94ba"/><path d="m86.640625 490.058594c-35.671875 0-64.699219-29.027344-64.699219-64.699219v-338.71875c0-35.671875 29.027344-64.699219 64.699219-64.699219h338.71875c35.671875 0 64.699219 29.027344 64.699219 64.699219v338.71875c0 35.671875-29.027344 64.699219-64.699219 64.699219zm0 0" fill="#A2FFC9"/><path d="m374.9375 397.640625c-44.828125 0-81.300781-36.472656-81.300781-81.304687 0-44.828126 36.46875-81.300782 81.300781-81.300782s81.304688 36.472656 81.304688 81.300782c0 44.832031-36.472657 81.304687-81.304688 81.304687zm0-146.933594c-36.1875 0-65.628906 29.441407-65.628906 65.628907 0 36.191406 29.441406 65.632812 65.628906 65.632812 36.191406 0 65.632812-29.441406 65.632812-65.632812 0-36.1875-29.441406-65.628907-65.632812-65.628907zm0 0" fill="#3a3d51"/><path d="m387.324219 165.125v8.085938c0 4.328124-3.507813 7.835937-7.835938 7.835937-4.335937 0-7.835937-3.507813-7.835937-7.835937v-8.085938c0-9.351562-7.617188-16.96875-16.96875-16.96875-4.742188 0-9.152344 1.902344-12.402344 5.347656-3.199219 3.386719-4.816406 7.796875-4.558594 12.414063 4.015625 70.195312 43.742188 145.992187 44.136719 146.757812 2.027344 3.824219.566406 8.566407-3.257813 10.582031-1.171874.628907-2.425781.921876-3.65625.921876-2.8125 0-5.527343-1.515626-6.929687-4.179688-1.703125-3.207031-41.734375-79.613281-45.933594-153.195312-.511719-8.964844 2.613281-17.511719 8.796875-24.0625 6.15625-6.519532 14.839844-10.261719 23.804688-10.261719 17.992187 0 32.640625 14.652343 32.640625 32.644531zm0 0" fill="#FFFFFF"/><path d="m262.851562 324.175781h-122.4375c-2.71875 0-5.246093-1.414062-6.671874-3.730469-1.425782-2.316406-1.550782-5.210937-.324219-7.636718l63.089843-125.035156c1.332032-2.640626 4.039063-4.304688 6.996094-4.304688h129.144532c2.777343 0 5.351562 1.472656 6.757812 3.867188 1.40625 2.398437 1.441406 5.363281.085938 7.789062l-69.800782 125.03125c-1.382812 2.480469-4 4.019531-6.839844 4.019531zm-109.703124-15.675781h105.101562l61.050781-109.359375h-110.972656zm0 0" fill="#FFFFFF"/><g fill="#3a3d51"><path d="m226.53125 169.8125h-55.921875c-4.328125 0-7.835937-3.507812-7.835937-7.835938 0-4.328124 3.507812-7.835937 7.835937-7.835937h55.921875c4.328125 0 7.835938 3.507813 7.835938 7.835937 0 4.328126-3.507813 7.835938-7.835938 7.835938zm0 0"/><path d="m140.417969 397.640625c-44.832031 0-81.304688-36.472656-81.304688-81.304687 0-44.828126 36.472657-81.300782 81.304688-81.300782 44.828125 0 81.304687 36.472656 81.304687 81.300782 0 44.832031-36.476562 81.304687-81.304687 81.304687zm0-146.933594c-36.191407 0-65.632813 29.441407-65.632813 65.628907 0 36.191406 29.441406 65.632812 65.632813 65.632812 36.1875 0 65.628906-29.441406 65.628906-65.632812 0-36.1875-29.441406-65.628907-65.628906-65.628907zm0 0"/><path d="m387.324219 165.125v8.085938c0 4.328124-3.507813 7.835937-7.835938 7.835937-4.335937 0-7.835937-3.507813-7.835937-7.835937v-8.085938c0-9.351562-7.617188-16.96875-16.96875-16.96875v-15.675781c17.992187 0 32.640625 14.652343 32.640625 32.644531zm0 0"/></g></svg>